<?xml version="1.0" encoding="UTF-8"?>
<svg xmlns="http://www.w3.org/2000/svg" version="1.1" viewBox="0 0 1200 1200">
  <!-- Generator: Adobe Illustrator 28.6.0, SVG Export Plug-In . SVG Version: 1.2.0 Build 709)  -->
  <g>
    <g id="Layer_1">
      <path d="M600,0C268.6,0,0,268.6,0,600s268.6,600,600,600,600-268.6,600-600S931.4,0,600,0ZM1124.1,570h-150.3c-3.7-46.6-15.9-90.7-35-131l130.2-75.2c31.6,62.6,51,132.3,55.1,206.1ZM1039,311.9l-130.2,75.2c-25.9-37.5-58.4-70-95.9-95.9l75.2-130.2c60,39.5,111.4,90.9,150.9,150.9ZM630,75.9c73.8,4.2,143.6,23.6,206.1,55.1l-75.2,130.2c-40.2-19.1-84.4-31.3-131-35V75.9ZM570,75.9v150.3c-46.6,3.7-90.7,15.9-131,35l-75.2-130.2c62.6-31.6,132.3-51,206.1-55.1ZM311.9,161l75.2,130.2c-37.5,25.9-70,58.4-95.9,95.9l-130.2-75.2c39.5-60,90.9-111.4,150.9-150.9ZM131,363.9l130.2,75.2c-19.1,40.2-31.3,84.4-35,131H75.9c4.2-73.8,23.6-143.6,55.1-206.1ZM75.9,630h150.3c3.7,46.6,15.9,90.7,35,131l-130.2,75.2c-31.6-62.6-51-132.3-55.1-206.1ZM161,888.1l130.2-75.2c25.9,37.5,58.4,70,95.9,95.9l-75.2,130.2c-60-39.5-111.4-90.9-150.9-150.9ZM570,1124.1c-73.8-4.2-143.6-23.6-206.1-55.1l75.2-130.2c40.2,19.1,84.4,31.3,131,35v150.3ZM300,600c0-165.7,134.3-300,300-300s300,134.3,300,300-134.3,300-300,300-300-134.3-300-300ZM630,1124.1v-150.3c46.6-3.7,90.7-15.9,131-35l75.2,130.2c-62.6,31.6-132.3,51-206.1,55.1ZM888.1,1039l-75.2-130.2c37.5-25.9,70-58.4,95.9-95.9l130.2,75.2c-39.5,60-90.9,111.4-150.9,150.9ZM1069,836.1l-130.2-75.2c19.1-40.2,31.3-84.4,35-131h150.3c-4.2,73.8-23.6,143.6-55.1,206.1Z"/>
    </g>
  </g>
</svg>
